<svg viewBox="0 0 656 656" width="656" height="656" x="0" y="0" xmlns="http://www.w3.org/2000/svg"><defs><pattern id="pattern" x="0" y="0" width="8" height="8" patternUnits="userSpaceOnUse"><polygon points="0,4 0,8 8,0 4,0" fill="#ffffff"></polygon><polygon points="4,8 8,8 8,4" fill="#ffffff"></polygon></pattern><mask id="grating" x="0" y="0" width="1" height="1"><rect x="0" y="0" width="100%" height="100%" fill="url(#pattern)"></rect></mask></defs><g id="horizStripes"><rect fill="#5C5C5C" height="32" width="100%" x="0" y="0"></rect><rect fill="#A0A0A0" height="176" width="100%" x="0" y="32"></rect><rect fill="#5C5C5C" height="160" width="100%" x="0" y="208"></rect><rect fill="#888888" height="24" width="100%" x="0" y="368"></rect><rect fill="#5C5C5C" height="24" width="100%" x="0" y="392"></rect><rect fill="#888888" height="24" width="100%" x="0" y="416"></rect><rect fill="#5C5C5C" height="24" width="100%" x="0" y="440"></rect><rect fill="#888888" height="192" width="100%" x="0" y="464"></rect></g><g id="vertStripes" mask="url(#grating)"><rect fill="#5C5C5C" height="100%" width="32" x="0" y="0"></rect><rect fill="#A0A0A0" height="100%" width="176" x="32" y="0"></rect><rect fill="#5C5C5C" height="100%" width="160" x="208" y="0"></rect><rect fill="#888888" height="100%" width="24" x="368" y="0"></rect><rect fill="#5C5C5C" height="100%" width="24" x="392" y="0"></rect><rect fill="#888888" height="100%" width="24" x="416" y="0"></rect><rect fill="#5C5C5C" height="100%" width="24" x="440" y="0"></rect><rect fill="#888888" height="100%" width="192" x="464" y="0"></rect></g></svg>